{"asset":{"version":"2.0","generator":"THREE.GLTFExporter"},"scenes":[{"name":"AuxScene","nodes":[0]}],"scene":0,"nodes":[{"mesh":0}],"bufferViews":[{"buffer":0,"byteOffset":0,"byteLength":38340,"target":34962,"byteStride":12},{"buffer":0,"byteOffset":38340,"byteLength":38340,"target":34962,"byteStride":12},{"buffer":0,"byteOffset":76680,"byteLength":38340,"target":34962,"byteStride":12},{"buffer":0,"byteOffset":115020,"byteLength":25560,"target":34962,"byteStride":8},{"buffer":0,"byteOffset":140580,"byteLength":3776,"target":34963},{"buffer":0,"byteOffset":144356,"byteLength":2256,"target":34963},{"buffer":0,"byteOffset":146612,"byteLength":24,"target":34963},{"buffer":0,"byteOffset":146636,"byteLength":168,"target":34963},{"buffer":0,"byteOffset":146804,"byteLength":168,"target":34963}],"buffers":[{"byteLength":146972,"uri":"data:application/octet-stream;base64,"}],"accessors":[{"bufferView":0,"componentType":5126,"count":3195,"max":[13,2.0000126361846924,0.00004999999873689376],"min":[-2,-2.5000414848327637,-16.000150680541992],"type":"VEC3"},{"bufferView":1,"componentType":5126,"count":3195,"max":[1,1,1],"min":[-1,-1,-1],"type":"VEC3"},{"bufferView":2,"componentType":5126,"count":3195,"max":[1,1,1],"min":[1,1,1],"type":"VEC3"},{"bufferView":3,"componentType":5126,"count":3195,"max":[0.875,1],"min":[0,0],"type":"VEC2"},{"bufferView":4,"componentType":5123,"count":1887,"max":[1886],"min":[0],"type":"SCALAR"},{"bufferView":5,"componentType":5123,"count":1128,"max":[3014],"min":[1887],"type":"SCALAR"},{"bufferView":6,"componentType":5123,"count":12,"max":[3026],"min":[3015],"type":"SCALAR"},{"bufferView":7,"componentType":5123,"count":84,"max":[3110],"min":[3027],"type":"SCALAR"},{"bufferView":8,"componentType":5123,"count":84,"max":[3194],"min":[3111],"type":"SCALAR"}],"materials":[{"pbrMetallicRoughness":{"metallicFactor":0,"roughnessFactor":0.9,"baseColorTexture":{"index":0}},"extensions":{"KHR_materials_unlit":{}},"alphaMode":"MASK","alphaCutoff":0.01},{"pbrMetallicRoughness":{"metallicFactor":0,"roughnessFactor":0.9,"baseColorTexture":{"index":1}},"extensions":{"KHR_materials_unlit":{}},"alphaMode":"MASK","alphaCutoff":0.01},{"pbrMetallicRoughness":{"metallicFactor":0,"roughnessFactor":0.9,"baseColorTexture":{"index":2}},"extensions":{"KHR_materials_unlit":{}},"alphaMode":"MASK","alphaCutoff":0.01},{"pbrMetallicRoughness":{"metallicFactor":0,"roughnessFactor":0.9,"baseColorTexture":{"index":3}},"extensions":{"KHR_materials_unlit":{}},"alphaMode":"MASK","alphaCutoff":0.01}],"textures":[{"sampler":0,"source":0},{"sampler":1,"source":1},{"sampler":2,"source":2},{"sampler":3,"source":3}],"samplers":[{"magFilter":9728,"minFilter":9728,"wrapS":33071,"wrapT":33071},{"magFilter":9728,"minFilter":9728,"wrapS":33071,"wrapT":33071},{"magFilter":9728,"minFilter":9728,"wrapS":33071,"wrapT":33071},{"magFilter":9728,"minFilter":9728,"wrapS":33071,"wrapT":33071}],"images":[{"mimeType":"image/png","uri":"data:image/png;base64,"},{"mimeType":"image/png","uri":"data:image/png;base64,"},{"mimeType":"image/png","uri":"data:image/png;base64,"},{"mimeType":"image/png","uri":"data:image/png;base64,"}],"meshes":[{"primitives":[{"mode":4,"attributes":{"POSITION":0,"NORMAL":1,"COLOR_0":2,"TEXCOORD_0":3},"indices":4,"material":0},{"mode":4,"attributes":{"POSITION":0,"NORMAL":1,"COLOR_0":2,"TEXCOORD_0":3},"indices":5,"material":1},{"mode":4,"attributes":{"POSITION":0,"NORMAL":1,"COLOR_0":2,"TEXCOORD_0":3},"indices":6,"material":2},{"mode":4,"attributes":{"POSITION":0,"NORMAL":1,"COLOR_0":2,"TEXCOORD_0":3},"indices":7,"material":3},{"mode":4,"attributes":{"POSITION":0,"NORMAL":1,"COLOR_0":2,"TEXCOORD_0":3},"indices":8,"material":1}]}],"extensionsUsed":["KHR_materials_unlit"]}