{"asset":{"version":"2.0","generator":"THREE.GLTFExporter"},"scenes":[{"name":"AuxScene","nodes":[0]}],"scene":0,"nodes":[{"mesh":0}],"bufferViews":[{"buffer":0,"byteOffset":0,"byteLength":1728,"target":34962,"byteStride":12},{"buffer":0,"byteOffset":1728,"byteLength":1728,"target":34962,"byteStride":12},{"buffer":0,"byteOffset":3456,"byteLength":1728,"target":34962,"byteStride":12},{"buffer":0,"byteOffset":5184,"byteLength":1152,"target":34962,"byteStride":8},{"buffer":0,"byteOffset":6336,"byteLength":288,"target":34963}],"buffers":[{"byteLength":6624,"uri":"data:application/octet-stream;base64,"}],"accessors":[{"bufferView":0,"componentType":5126,"count":144,"max":[1.25,2.000105381011963,0.75],"min":[-1.25,0.25,-2.75],"type":"VEC3"},{"bufferView":1,"componentType":5126,"count":144,"max":[1,0.9630728363990784,0.8165252804756165],"min":[-1,-0.9631060361862183,-0.800000011920929],"type":"VEC3"},{"bufferView":2,"componentType":5126,"count":144,"max":[1,1,1],"min":[1,1,1],"type":"VEC3"},{"bufferView":3,"componentType":5126,"count":144,"max":[0.390625,0.359375],"min":[0,0],"type":"VEC2"},{"bufferView":4,"componentType":5123,"count":144,"max":[143],"min":[0],"type":"SCALAR"}],"materials":[{"pbrMetallicRoughness":{"metallicFactor":0,"roughnessFactor":0.9,"baseColorTexture":{"index":0}},"extensions":{"KHR_materials_unlit":{}},"alphaMode":"MASK","alphaCutoff":0.01}],"textures":[{"sampler":0,"source":0}],"samplers":[{"magFilter":9728,"minFilter":9728,"wrapS":33071,"wrapT":33071}],"images":[{"mimeType":"image/png","uri":"data:image/png;base64,"}],"meshes":[{"primitives":[{"mode":4,"attributes":{"POSITION":0,"NORMAL":1,"COLOR_0":2,"TEXCOORD_0":3},"indices":4,"material":0}]}],"extensionsUsed":["KHR_materials_unlit"]}