{"asset":{"version":"2.0","generator":"THREE.GLTFExporter"},"scenes":[{"name":"AuxScene","nodes":[0]}],"scene":0,"nodes":[{"mesh":0}],"bufferViews":[{"buffer":0,"byteOffset":0,"byteLength":720,"target":34962,"byteStride":12},{"buffer":0,"byteOffset":720,"byteLength":720,"target":34962,"byteStride":12},{"buffer":0,"byteOffset":1440,"byteLength":720,"target":34962,"byteStride":12},{"buffer":0,"byteOffset":2160,"byteLength":480,"target":34962,"byteStride":8},{"buffer":0,"byteOffset":2640,"byteLength":120,"target":34963}],"buffers":[{"byteLength":2760,"uri":"data:application/octet-stream;base64,"}],"accessors":[{"bufferView":0,"componentType":5126,"count":60,"max":[0.75,1.5000516176223755,1.25],"min":[0.25,-0.2500167191028595,-0.7500395178794861],"type":"VEC3"},{"bufferView":1,"componentType":5126,"count":60,"max":[1,1,0.8682512640953064],"min":[-1,-1,-0.8682431578636169],"type":"VEC3"},{"bufferView":2,"componentType":5126,"count":60,"max":[1,1,1],"min":[1,1,1],"type":"VEC3"},{"bufferView":3,"componentType":5126,"count":60,"max":[0.3125,0.875],"min":[0.0625,0.5625],"type":"VEC2"},{"bufferView":4,"componentType":5123,"count":60,"max":[59],"min":[0],"type":"SCALAR"}],"materials":[{"pbrMetallicRoughness":{"metallicFactor":0,"roughnessFactor":0.9,"baseColorTexture":{"index":0}},"extensions":{"KHR_materials_unlit":{}},"alphaMode":"MASK","alphaCutoff":0.01}],"textures":[{"sampler":0,"source":0}],"samplers":[{"magFilter":9728,"minFilter":9728,"wrapS":33071,"wrapT":33071}],"images":[{"mimeType":"image/png","uri":"data:image/png;base64,"}],"meshes":[{"primitives":[{"mode":4,"attributes":{"POSITION":0,"NORMAL":1,"COLOR_0":2,"TEXCOORD_0":3},"indices":4,"material":0}]}],"extensionsUsed":["KHR_materials_unlit"]}