{"asset":{"version":"2.0","generator":"THREE.GLTFExporter"},"scenes":[{"name":"AuxScene","nodes":[0]}],"scene":0,"nodes":[{"mesh":0}],"bufferViews":[{"buffer":0,"byteOffset":0,"byteLength":1872,"target":34962,"byteStride":12},{"buffer":0,"byteOffset":1872,"byteLength":1872,"target":34962,"byteStride":12},{"buffer":0,"byteOffset":3744,"byteLength":1872,"target":34962,"byteStride":12},{"buffer":0,"byteOffset":5616,"byteLength":1248,"target":34962,"byteStride":8},{"buffer":0,"byteOffset":6864,"byteLength":312,"target":34963}],"buffers":[{"byteLength":7176,"uri":"data:application/octet-stream;base64,"}],"accessors":[{"bufferView":0,"componentType":5126,"count":156,"max":[0.008974595926702023,3.187514305114746,0.8749499917030334],"min":[-2.375,0.3750142753124237,-1.5000499486923218],"type":"VEC3"},{"bufferView":1,"componentType":5126,"count":156,"max":[0.9789804220199585,1,0.9820489883422852],"min":[-0.9745533466339111,-1,-0.986393928527832],"type":"VEC3"},{"bufferView":2,"componentType":5126,"count":156,"max":[1,1,1],"min":[1,1,1],"type":"VEC3"},{"bufferView":3,"componentType":5126,"count":156,"max":[0.875,0.625],"min":[0.8125,0.5625],"type":"VEC2"},{"bufferView":4,"componentType":5123,"count":156,"max":[155],"min":[0],"type":"SCALAR"}],"materials":[{"pbrMetallicRoughness":{"metallicFactor":0,"roughnessFactor":0.9,"baseColorTexture":{"index":0}},"extensions":{"KHR_materials_unlit":{}},"alphaMode":"MASK","alphaCutoff":0.01}],"textures":[{"sampler":0,"source":0}],"samplers":[{"magFilter":9728,"minFilter":9728,"wrapS":33071,"wrapT":33071}],"images":[{"mimeType":"image/png","uri":"data:image/png;base64,"}],"meshes":[{"primitives":[{"mode":4,"attributes":{"POSITION":0,"NORMAL":1,"COLOR_0":2,"TEXCOORD_0":3},"indices":4,"material":0}]}],"extensionsUsed":["KHR_materials_unlit"]}