{"asset":{"version":"2.0","generator":"THREE.GLTFExporter"},"scenes":[{"name":"AuxScene","nodes":[0]}],"scene":0,"nodes":[{"mesh":0}],"bufferViews":[{"buffer":0,"byteOffset":0,"byteLength":71568,"target":34962,"byteStride":12},{"buffer":0,"byteOffset":71568,"byteLength":71568,"target":34962,"byteStride":12},{"buffer":0,"byteOffset":143136,"byteLength":71568,"target":34962,"byteStride":12},{"buffer":0,"byteOffset":214704,"byteLength":47712,"target":34962,"byteStride":8},{"buffer":0,"byteOffset":262416,"byteLength":2544,"target":34963},{"buffer":0,"byteOffset":264960,"byteLength":9312,"target":34963},{"buffer":0,"byteOffset":274272,"byteLength":72,"target":34963}],"buffers":[{"byteLength":274344,"uri":"data:application/octet-stream;base64,"}],"accessors":[{"bufferView":0,"componentType":5126,"count":5964,"max":[17.5,2.000267744064331,0.0003000150027219206],"min":[-1,-3.499732255935669,-20.999849319458008],"type":"VEC3"},{"bufferView":1,"componentType":5126,"count":5964,"max":[1,1,1],"min":[-1,-1,-1],"type":"VEC3"},{"bufferView":2,"componentType":5126,"count":5964,"max":[1,1,1],"min":[1,1,1],"type":"VEC3"},{"bufferView":3,"componentType":5126,"count":5964,"max":[0.9375,1],"min":[0,0],"type":"VEC2"},{"bufferView":4,"componentType":5123,"count":1272,"max":[1271],"min":[0],"type":"SCALAR"},{"bufferView":5,"componentType":5123,"count":4656,"max":[5927],"min":[1272],"type":"SCALAR"},{"bufferView":6,"componentType":5123,"count":36,"max":[5963],"min":[5928],"type":"SCALAR"}],"materials":[{"pbrMetallicRoughness":{"metallicFactor":0,"roughnessFactor":0.9,"baseColorTexture":{"index":0}},"extensions":{"KHR_materials_unlit":{}},"alphaMode":"MASK","alphaCutoff":0.01},{"pbrMetallicRoughness":{"metallicFactor":0,"roughnessFactor":0.9,"baseColorTexture":{"index":1}},"extensions":{"KHR_materials_unlit":{}},"alphaMode":"MASK","alphaCutoff":0.01}],"textures":[{"sampler":0,"source":0},{"sampler":1,"source":1}],"samplers":[{"magFilter":9728,"minFilter":9728,"wrapS":33071,"wrapT":33071},{"magFilter":9728,"minFilter":9728,"wrapS":33071,"wrapT":33071}],"images":[{"mimeType":"image/png","uri":"data:image/png;base64,"},{"mimeType":"image/png","uri":"data:image/png;base64,"}],"meshes":[{"primitives":[{"mode":4,"attributes":{"POSITION":0,"NORMAL":1,"COLOR_0":2,"TEXCOORD_0":3},"indices":4,"material":0},{"mode":4,"attributes":{"POSITION":0,"NORMAL":1,"COLOR_0":2,"TEXCOORD_0":3},"indices":5,"material":1},{"mode":4,"attributes":{"POSITION":0,"NORMAL":1,"COLOR_0":2,"TEXCOORD_0":3},"indices":6,"material":0}]}],"extensionsUsed":["KHR_materials_unlit"]}