{"asset":{"version":"2.0","generator":"THREE.GLTFExporter"},"scenes":[{"name":"AuxScene","nodes":[0]}],"scene":0,"nodes":[{"mesh":0}],"bufferViews":[{"buffer":0,"byteOffset":0,"byteLength":42768,"target":34962,"byteStride":12},{"buffer":0,"byteOffset":42768,"byteLength":42768,"target":34962,"byteStride":12},{"buffer":0,"byteOffset":85536,"byteLength":42768,"target":34962,"byteStride":12},{"buffer":0,"byteOffset":128304,"byteLength":28512,"target":34962,"byteStride":8},{"buffer":0,"byteOffset":156816,"byteLength":3528,"target":34963},{"buffer":0,"byteOffset":160344,"byteLength":24,"target":34963},{"buffer":0,"byteOffset":160368,"byteLength":108,"target":34963},{"buffer":0,"byteOffset":160476,"byteLength":3468,"target":34963}],"buffers":[{"byteLength":163944,"uri":"data:application/octet-stream;base64,"}],"accessors":[{"bufferView":0,"componentType":5126,"count":3564,"max":[41,2,6],"min":[3,-0.0006347798043861985,-8],"type":"VEC3"},{"bufferView":1,"componentType":5126,"count":3564,"max":[1,1,1],"min":[-1,-0.000550325436051935,-1],"type":"VEC3"},{"bufferView":2,"componentType":5126,"count":3564,"max":[1,1,1],"min":[1,1,1],"type":"VEC3"},{"bufferView":3,"componentType":5126,"count":3564,"max":[0.875,1],"min":[0,0],"type":"VEC2"},{"bufferView":4,"componentType":5123,"count":1764,"max":[1763],"min":[0],"type":"SCALAR"},{"bufferView":5,"componentType":5123,"count":12,"max":[1775],"min":[1764],"type":"SCALAR"},{"bufferView":6,"componentType":5123,"count":54,"max":[1829],"min":[1776],"type":"SCALAR"},{"bufferView":7,"componentType":5123,"count":1734,"max":[3563],"min":[1830],"type":"SCALAR"}],"materials":[{"pbrMetallicRoughness":{"metallicFactor":0,"roughnessFactor":0.9,"baseColorTexture":{"index":0}},"extensions":{"KHR_materials_unlit":{}},"alphaMode":"MASK","alphaCutoff":0.01},{"pbrMetallicRoughness":{"metallicFactor":0,"roughnessFactor":0.9,"baseColorTexture":{"index":1}},"extensions":{"KHR_materials_unlit":{}},"alphaMode":"MASK","alphaCutoff":0.01}],"textures":[{"sampler":0,"source":0},{"sampler":1,"source":1}],"samplers":[{"magFilter":9728,"minFilter":9728,"wrapS":33071,"wrapT":33071},{"magFilter":9728,"minFilter":9728,"wrapS":33071,"wrapT":33071}],"images":[{"mimeType":"image/png","uri":"data:image/png;base64,"},{"mimeType":"image/png","uri":"data:image/png;base64,"}],"meshes":[{"primitives":[{"mode":4,"attributes":{"POSITION":0,"NORMAL":1,"COLOR_0":2,"TEXCOORD_0":3},"indices":4,"material":0},{"mode":4,"attributes":{"POSITION":0,"NORMAL":1,"COLOR_0":2,"TEXCOORD_0":3},"indices":5,"material":1},{"mode":4,"attributes":{"POSITION":0,"NORMAL":1,"COLOR_0":2,"TEXCOORD_0":3},"indices":6,"material":0},{"mode":4,"attributes":{"POSITION":0,"NORMAL":1,"COLOR_0":2,"TEXCOORD_0":3},"indices":7,"material":1}]}],"extensionsUsed":["KHR_materials_unlit"]}